<svg width="221" xmlns="http://www.w3.org/2000/svg" height="73" fill="none"><g data-testid="twc_cli_dark"><defs><clipPath id="a" class="frame-clip frame-clip-def"><rect rx="0" ry="0" width="221" height="73"/></clipPath></defs><g clip-path="url(#a)"><g class="fills"><rect width="221" height="73" class="frame-background" style="fill: rgb(255, 255, 255); fill-opacity: 0;" ry="0" rx="0" fill="none"/></g><g class="frame-children"><g data-testid="twc" style="fill: rgb(0, 0, 0);"><path d="M215.804 17.468c0-2.482-1.956-4.468-4.402-4.468-2.445 0-4.402 1.986-4.402 4.468s1.957 4.467 4.402 4.467c2.446 0 4.402-1.985 4.402-4.467Zm-.652 40.705V25.079h-7.5v33.094h7.5Z" style="fill: rgb(69, 76, 238);" class="fills" data-testid="svg-path"/><path d="M192 58.2h7v-42h-7v42Z" style="fill: rgb(69, 76, 238);" class="fills" data-testid="svg-path-4"/><path d="M180.847 46.888c-1.844 2.765-4.581 4.65-8.334 4.65-6.68 0-11.005-4.399-11.005-10.307 0-6.159 4.262-10.369 10.243-10.369 3.753 0 6.234 1.32 8.46 4.273l5.409-3.519c-2.165-4.337-7.381-7.416-14.188-7.416C160.999 24.2 154 31.553 154 41.231c0 10.307 7.189 16.969 17.814 16.969 5.726 0 11.451-2.765 14.186-8.044l-5.153-3.268Z" style="fill: rgb(69, 76, 238);" class="fills" data-testid="svg-path-2"/><path d="M144 41.617 127.631 24.2 123 29.342l11.425 12.275L123 54.058l4.631 5.142L144 41.617Z" style="fill: rgb(69, 76, 238);" class="fills" data-testid="svg-path-1"/><path d="M106.847 46.888c-1.844 2.765-4.581 4.65-8.334 4.65-6.68 0-11.005-4.399-11.005-10.307 0-6.159 4.262-10.369 10.243-10.369 3.753 0 6.234 1.32 8.46 4.273l5.409-3.519c-2.165-4.337-7.381-7.416-14.188-7.416C86.999 24.2 80 31.553 80 41.231 80 51.538 87.189 58.2 97.814 58.2c5.726 0 11.451-2.765 14.186-8.044l-5.153-3.268Z" style="fill: rgb(255, 255, 255);" class="fills" data-testid="svg-path-2"/><path d="M18.228 58.518c-3.424 0-6.358-.662-8.152-2.151C7.141 54.216 6 51.403 6 47.101V15h7.337v9.928h10.598v7.281H13.337v13.568c0 2.647.489 3.971 1.793 4.798.816.497 2.283.828 4.566.828 1.467 0 4.239-.166 4.239-.166v6.785s-2.609.496-5.707.496ZM68.826 58.093l7.215-28.163L77.304 25h-7.499l-5.218 23.331h-.489L58.065 25h-7.663l-6.196 23.331h-.489L38.5 25H31l8.478 33.093h8.642l5.869-23.33h.489l5.87 23.33h8.478Z" style="fill: rgb(255, 255, 255);" class="fills" data-testid="svg-path"/></g></g></g></g></svg>